<?xml version="1.0" encoding="utf-8"?>
<!-- Generator: Adobe Illustrator 15.1.0, SVG Export Plug-In . SVG Version: 6.00 Build 0)  -->
<!DOCTYPE svg PUBLIC "-//W3C//DTD SVG 1.1//EN" "http://www.w3.org/Graphics/SVG/1.1/DTD/svg11.dtd">
<svg version="1.1" id="Layer_1" xmlns="http://www.w3.org/2000/svg" xmlns:xlink="http://www.w3.org/1999/xlink" x="0px" y="0px"
	 width="73.5px" height="70.5px" viewBox="0 0 73.5 70.5" enable-background="new 0 0 73.5 70.5" xml:space="preserve">
<path fill="#231F20" d="M38.512,52H32.16H31v1.16v6.352v1.16h1.16h6.352h1.16v-1.16V53.16V52H38.512z M38.512,59.512H32.16V53.16
	h6.352V59.512z"/>
<path fill="#989898" d="M38.512,30H32.16H31v1.16v6.352v1.16h1.16h6.352h1.16v-1.16V31.16V30H38.512z M38.512,37.512H32.16V31.16
	h6.352V37.512z"/>
<path fill="#CCCCCC" d="M38.512,8H32.16H31v1.16v6.352v1.16h1.16h6.352h1.16v-1.16V9.16V8H38.512z M38.512,15.512H32.16V9.16h6.352
	V15.512z"/>
<polygon fill="#CCCCCC" points="59.396,8 57.768,8 62.104,12.336 57.768,16.672 59.396,16.672 63.732,12.336 "/>
<polygon fill="#989898" points="59.396,30 57.768,30 62.104,34.336 57.768,38.672 59.396,38.672 63.732,34.336 "/>
<polygon fill="#231F20" points="59.396,52 57.768,52 62.104,56.336 57.768,60.672 59.396,60.672 63.732,56.336 "/>
<polygon fill="#231F20" points="11.336,52 12.965,52 8.629,56.336 12.965,60.672 11.336,60.672 7,56.336 "/>
<polygon fill="#989898" points="11.336,30 12.965,30 8.629,34.336 12.965,38.672 11.336,38.672 7,34.336 "/>
<polygon fill="#CCCCCC" points="11.336,8 12.965,8 8.629,12.336 12.965,16.672 11.336,16.672 7,12.336 "/>
</svg>
